# xmcd
#
# Track frame offsets:
#	150
#	16709
#	37284
#	53884
#	69611
#	85413
#	102091
#	119127
#	138415
#	154131
#	171951
#	196292
#
# Disc length: 2868 seconds
# Revision: 0
# Processed by: cddbd v1.5.2PL0 Copyright (c) Steve Scherf et al.
# Submitted via: dBpowerAMP V12.0
#
DISCID=aa0b320c
DTITLE=Blackberry Smoke - Little Piece of Dixie [Unreleased Adrenaline Version] [BamaJam]
DYEAR=2009
DGENRE=Country
TTITLE0=Good One Coming On
TTITLE1=Like I Am
TTITLE2=Bottom of This
TTITLE3=Up in Smoke
TTITLE4=Sanctified Woman
TTITLE5=Who Invented the Wheel
TTITLE6=I'd Be Lyin'
TTITLE7=Prayer for the Little Man
TTITLE8=Restless
TTITLE9=Shake Your Magnolia
TTITLE10=Freedom Song
TTITLE11=Yesterday's Wine
EXTD=
EXTT0=
EXTT1=
EXTT2=
EXTT3=
EXTT4=
EXTT5=
EXTT6=
EXTT7=
EXTT8=
EXTT9=
EXTT10=
EXTT11=
PLAYORDER=
